<svg id='Minecraft Creeper' width='24' height='24' viewBox='0 0 24 24' xmlns='http://www.w3.org/2000/svg' xmlns:xlink='http://www.w3.org/1999/xlink'><rect width='24' height='24' stroke='none' fill="currentColor" opacity='0'/>
<g transform="matrix(0.56 0 0 0.56 12 12)" >
<path style="stroke: none; stroke-width: 1; stroke-dasharray: none; stroke-linecap: butt; stroke-dashoffset: 0; stroke-linejoin: miter; stroke-miterlimit: 4; fill: currentColor; fill-rule: nonzero; opacity: 1;" transform=" translate(-24, -24)" d="M 10 6 C 7.791 6 6 7.791 6 10 L 6 38 C 6 40.209 7.791 42 10 42 L 38 42 C 40.209 42 42 40.209 42 38 L 42 10 C 42 7.791 40.209 6 38 6 L 10 6 z M 10 9 L 38 9 C 38.551 9 39 9.449 39 10 L 39 38 C 39 38.551 38.551 39 38 39 L 10 39 C 9.449 39 9 38.551 9 38 L 9 10 C 9 9.449 9.449 9 10 9 z M 13 14 C 12.448 14 12 14.448 12 15 L 12 21 C 12 21.552 12.448 22 13 22 L 20 22 L 20 15 C 20 14.448 19.552 14 19 14 L 13 14 z M 20 22 L 20 26 L 17 26 C 16.448 26 16 26.448 16 27 L 16 33 L 16 34.5 C 16 35.328 16.671 36 17.5 36 C 18.328 36 19 35.328 19 34.5 L 19 33 L 24 33 L 29 33 L 29 34.5 C 29 35.328 29.671 36 30.5 36 C 31.328 36 32 35.328 32 34.5 L 32 31 L 32 27 C 32 26.448 31.552 26 31 26 L 28 26 L 28 22 L 20 22 z M 28 22 L 35 22 C 35.552 22 36 21.552 36 21 L 36 15 C 36 14.448 35.552 14 35 14 L 29 14 C 28.448 14 28 14.448 28 15 L 28 22 z" stroke-linecap="round" />
</g>
</svg>